<?xml version="1.0" standalone="no"?>
<!DOCTYPE svg PUBLIC "-//W3C//DTD SVG 20010904//EN"
 "http://www.w3.org/TR/2001/REC-SVG-20010904/DTD/svg10.dtd">
<svg version="1.0" xmlns="http://www.w3.org/2000/svg"
 width="160.000000pt" height="120.000000pt" viewBox="0 0 160.000000 120.000000"
 preserveAspectRatio="xMidYMid meet">
<metadata>
Created by potrace 1.16, written by Peter Selinger 2001-2019
</metadata>
<g transform="translate(0.000000,120.000000) scale(0.100000,-0.100000)"
fill="#000000" stroke="none">
<path d="M820 1159 c-25 -4 -91 -8 -147 -8 l-101 -1 -43 -52 c-23 -29 -49 -60
-58 -68 -9 -8 -26 -27 -37 -42 -21 -27 -22 -42 -30 -405 -5 -208 -9 -385 -9
-393 0 -9 15 -19 40 -25 31 -8 40 -14 37 -28 -2 -11 -1 -33 2 -51 l6 -32 288
0 c211 -1 298 -5 325 -14 27 -10 42 -11 60 -3 24 11 25 16 32 165 4 84 11 297
14 473 6 251 5 323 -5 334 -7 8 -35 16 -63 19 l-51 5 0 62 0 62 -46 7 c-59 8
-156 6 -214 -5z m200 -111 c-2 -194 -19 -800 -23 -804 -3 -3 -125 -7 -273 -10
l-267 -5 6 158 c4 87 7 235 7 328 l0 170 87 0 88 0 -3 98 -4 97 89 1 c48 1
102 5 118 9 17 4 63 8 103 9 l72 1 0 -52z m120 -205 c0 -117 -13 -429 -26
-626 l-7 -102 -161 8 c-88 4 -216 6 -283 5 -95 -3 -123 -1 -123 9 0 20 29 23
285 26 l240 3 6 104 c4 58 7 237 8 398 l1 292 30 0 30 0 0 -117z"/>
<path d="M500 799 c0 -15 7 -30 16 -33 20 -8 123 -8 302 1 l143 6 -3 26 -3 26
-227 0 -228 0 0 -26z"/>
<path d="M676 730 c-76 -5 -145 -11 -153 -14 -8 -4 -13 -16 -11 -28 l3 -23
170 4 c94 2 192 4 220 5 40 1 50 5 53 20 2 10 0 22 -5 26 -14 14 -133 18 -277
10z"/>
<path d="M633 623 l-133 -4 0 -28 c0 -28 1 -28 68 -33 38 -3 108 -2 158 3 49
4 121 8 160 8 74 1 91 11 78 46 -5 12 -25 15 -103 13 -53 -1 -156 -4 -228 -5z"/>
<path d="M643 523 l-133 -4 0 -29 c0 -27 3 -29 46 -36 37 -5 166 1 379 19 14
2 20 9 20 27 0 25 -1 25 -90 25 -49 1 -150 -1 -222 -2z"/>
<path d="M514 401 c-2 -2 -4 -15 -4 -27 0 -31 20 -36 171 -37 110 -1 131 1
146 16 14 13 15 21 7 35 -10 15 -30 17 -163 17 -84 0 -155 -2 -157 -4z"/>
</g>
</svg>
