<?xml version="1.0" standalone="no"?>
<!DOCTYPE svg PUBLIC "-//W3C//DTD SVG 20010904//EN"
 "http://www.w3.org/TR/2001/REC-SVG-20010904/DTD/svg10.dtd">
<svg version="1.0" xmlns="http://www.w3.org/2000/svg"
 width="160.000000pt" height="120.000000pt" viewBox="0 0 160.000000 120.000000"
 preserveAspectRatio="xMidYMid meet">
<metadata>
Created by potrace 1.16, written by Peter Selinger 2001-2019
</metadata>
<g transform="translate(0.000000,120.000000) scale(0.100000,-0.100000)"
fill="#000000" stroke="none">
<path d="M470 902 c-81 -8 -111 -15 -122 -26 -7 -7 -24 -20 -38 -29 -14 -9
-39 -42 -55 -74 -28 -54 -30 -66 -30 -163 0 -116 16 -163 77 -227 44 -46 149
-78 233 -70 88 8 132 34 191 110 17 21 31 27 65 29 35 1 45 -3 58 -23 57 -88
133 -128 261 -136 85 -6 85 -6 130 29 162 123 187 362 51 491 -98 93 -89 91
-466 92 -181 0 -341 -1 -355 -3z m380 -64 c312 -1 319 -3 401 -80 59 -56 82
-118 69 -189 -13 -65 -52 -131 -105 -174 -35 -30 -50 -35 -92 -35 -102 0 -199
52 -227 120 -15 38 -16 38 -79 45 -81 9 -96 4 -128 -44 -66 -94 -151 -124
-261 -90 -108 34 -157 102 -158 219 0 70 29 149 67 183 49 43 95 57 168 52 39
-3 194 -6 345 -7z"/>
<path d="M477 783 c-4 -3 -7 -35 -7 -71 l0 -65 -70 7 -70 6 0 -34 c0 -42 6
-46 75 -53 l54 -6 3 -56 c3 -47 6 -56 23 -59 33 -4 45 12 47 65 l3 51 48 5
c59 7 67 12 67 40 0 40 -16 52 -64 50 -41 -1 -44 0 -50 29 -3 17 -6 43 -6 58
0 32 -34 53 -53 33z"/>
</g>
</svg>
