<?xml version="1.0" standalone="no"?>
<!DOCTYPE svg PUBLIC "-//W3C//DTD SVG 20010904//EN"
 "http://www.w3.org/TR/2001/REC-SVG-20010904/DTD/svg10.dtd">
<svg version="1.0" xmlns="http://www.w3.org/2000/svg"
 width="160.000000pt" height="120.000000pt" viewBox="0 0 160.000000 120.000000"
 preserveAspectRatio="xMidYMid meet">
<metadata>
Created by potrace 1.16, written by Peter Selinger 2001-2019
</metadata>
<g transform="translate(0.000000,120.000000) scale(0.100000,-0.100000)"
fill="#000000" stroke="none">
<path d="M419 1186 c-69 -40 -108 -162 -70 -222 35 -57 88 -89 144 -89 36 0
52 -4 55 -15 3 -8 33 -58 68 -110 62 -94 63 -97 52 -134 l-12 -38 -86 6 c-47
4 -121 13 -165 21 -44 7 -105 16 -135 20 -51 5 -57 9 -75 43 -15 28 -30 40
-64 51 -38 12 -47 12 -77 -3 -60 -28 -75 -129 -28 -185 23 -28 32 -31 79 -31
49 0 56 3 83 36 21 26 35 34 48 30 28 -9 269 -43 357 -51 42 -4 77 -10 77 -13
0 -2 -29 -37 -64 -76 -121 -135 -109 -126 -170 -126 -49 0 -57 -3 -81 -32 -23
-27 -26 -39 -23 -79 9 -93 77 -138 155 -102 43 20 70 88 57 141 -9 35 -7 40
32 82 23 25 62 68 87 95 l46 50 31 -17 c18 -10 38 -18 45 -18 9 0 28 -44 53
-122 33 -103 37 -124 26 -136 -34 -34 -23 -117 19 -147 44 -31 126 -13 146 32
27 59 -2 125 -61 141 -28 7 -33 16 -73 129 l-43 121 24 22 c12 13 26 35 29 51
6 26 11 29 48 29 22 0 124 7 226 16 145 13 186 13 189 4 3 -7 17 -27 32 -44
26 -28 34 -31 85 -30 71 0 105 29 112 97 7 61 -1 90 -38 132 -26 29 -38 35
-71 35 -54 0 -104 -32 -118 -74 -12 -39 0 -36 -289 -58 l-163 -12 -19 25 c-10
13 -19 27 -19 30 0 8 133 183 176 231 23 27 41 36 74 41 49 6 67 24 76 75 19
99 -129 141 -156 44 -5 -20 -7 -46 -4 -58 4 -16 -4 -33 -32 -64 -21 -23 -70
-83 -109 -134 l-71 -91 -56 -1 c-55 -2 -56 -2 -91 46 -19 26 -49 72 -67 103
l-32 57 25 30 c36 42 44 116 19 172 -29 65 -53 82 -125 85 -41 2 -71 -2 -88
-11z m109 -62 c27 -8 52 -51 52 -92 0 -33 -31 -66 -78 -83 -28 -9 -35 -8 -66
16 -45 34 -52 58 -31 106 22 49 67 68 123 53z m308 -515 c20 -23 13 -78 -15
-103 -24 -22 -65 -12 -91 21 -25 32 -25 40 -1 79 16 26 23 30 54 26 20 -2 43
-12 53 -23z"/>
</g>
</svg>
