<?xml version="1.0" standalone="no"?>
<!DOCTYPE svg PUBLIC "-//W3C//DTD SVG 20010904//EN"
 "http://www.w3.org/TR/2001/REC-SVG-20010904/DTD/svg10.dtd">
<svg version="1.0" xmlns="http://www.w3.org/2000/svg"
 width="160.000000pt" height="120.000000pt" viewBox="0 0 160.000000 120.000000"
 preserveAspectRatio="xMidYMid meet">

<g transform="translate(0.000000,120.000000) scale(0.100000,-0.100000)"
fill="#000000" stroke="none">
<path d="M657 1033 c-5 -4 -112 -10 -238 -13 -221 -5 -229 -6 -251 -28 -19
-19 -23 -34 -23 -90 -1 -37 -5 -159 -9 -272 -8 -182 -7 -209 8 -237 9 -18 24
-37 34 -42 11 -6 158 -10 368 -9 l349 1 35 -86 c19 -47 38 -89 41 -92 4 -3 91
-6 194 -7 192 0 204 2 205 40 0 16 34 125 67 217 14 39 26 81 27 95 1 25 0 25
-71 21 l-73 -3 -47 100 c-33 70 -53 101 -65 101 -27 1 -22 -27 17 -112 19 -42
35 -77 35 -79 0 -2 -40 -3 -90 -3 -49 0 -90 0 -90 0 0 0 16 38 34 85 34 84 34
110 1 110 -11 0 -55 -86 -55 -107 0 -5 -7 -18 -15 -29 -14 -17 -15 2 -13 189
3 270 18 251 -205 255 -89 2 -166 0 -170 -5z m318 -52 c11 -19 -341 -376 -383
-387 -30 -8 -69 20 -181 128 -47 46 -116 110 -154 143 -37 32 -67 66 -67 76 0
24 38 28 250 28 96 0 191 5 210 10 46 12 317 14 325 2z m15 -266 l0 -185 -65
0 c-43 0 -67 -4 -70 -12 -3 -7 1 -37 8 -65 l14 -53 -46 -1 c-406 -6 -625 -3
-638 9 -15 15 -16 56 -6 285 3 87 10 156 14 155 4 -2 69 -61 144 -133 167
-159 211 -190 256 -180 36 8 183 143 308 282 40 46 75 83 77 83 2 0 4 -83 4
-185z m150 -260 c0 -20 -5 -25 -24 -25 -13 0 -31 -3 -40 -6 -13 -5 -16 1 -16
25 0 30 2 31 40 31 36 0 40 -2 40 -25z m105 -5 c0 -21 -4 -25 -29 -23 -33 2
-31 1 -41 31 -6 22 -4 23 32 20 33 -3 38 -6 38 -28z m150 8 c-11 -36 -20 -41
-64 -33 -35 6 -41 10 -41 31 0 22 3 24 56 24 53 0 55 -1 49 -22z m-385 -13 c0
-23 -3 -25 -48 -25 -42 0 -50 3 -60 25 l-12 25 60 0 c57 0 60 -1 60 -25z m0
-100 c0 -32 -3 -35 -28 -35 -21 0 -32 7 -41 26 -15 34 -7 44 35 44 32 0 34 -2
34 -35z m130 5 c0 -28 -2 -30 -40 -30 -38 0 -40 2 -40 30 0 28 2 30 40 30 38
0 40 -2 40 -30z m102 25 c2 -3 3 -18 0 -35 -4 -25 -9 -30 -33 -30 -26 0 -29 3
-29 35 0 32 3 35 28 35 16 0 31 -2 34 -5z m118 -7 c-1 -40 -13 -58 -41 -58
-26 0 -29 3 -29 35 0 33 2 35 35 35 21 0 35 -5 35 -12z m-342 -130 c4 -36 -20
-38 -36 -3 -16 35 -15 37 11 33 16 -2 23 -11 25 -30z m120 0 c3 -26 1 -28 -32
-28 -20 0 -36 3 -36 8 0 4 -3 17 -6 30 -6 22 -4 23 32 20 34 -3 39 -6 42 -30z
m112 -2 c0 -21 -4 -23 -32 -21 -25 2 -34 8 -36 24 -3 18 2 21 32 21 31 0 36
-3 36 -24z m70 4 c0 -11 -7 -20 -15 -20 -8 0 -15 9 -15 20 0 11 7 20 15 20 8
0 15 -9 15 -20z"/>
</g>
</svg>
