<?xml version="1.0" standalone="no"?>
<!DOCTYPE svg PUBLIC "-//W3C//DTD SVG 20010904//EN"
 "http://www.w3.org/TR/2001/REC-SVG-20010904/DTD/svg10.dtd">
<svg version="1.0" xmlns="http://www.w3.org/2000/svg"
 width="160.000000pt" height="120.000000pt" viewBox="0 0 160.000000 120.000000"
 preserveAspectRatio="xMidYMid meet">

<g transform="translate(0.000000,120.000000) scale(0.100000,-0.100000)"
fill="#000000" stroke="none">
<path d="M530 1103 c-14 -2 -82 -18 -152 -34 -137 -33 -158 -47 -158 -108 0
-39 55 -363 80 -476 11 -49 27 -130 35 -179 8 -52 20 -96 30 -105 23 -23 124
-18 272 13 102 22 126 24 143 14 11 -7 20 -16 20 -19 0 -3 48 -30 108 -59 74
-37 123 -55 158 -58 50 -4 54 -2 99 39 54 49 69 78 155 283 51 123 61 155 55
183 -8 42 -42 80 -82 89 -15 4 -91 38 -169 75 -206 101 -250 96 -309 -28 -21
-44 -23 -46 -28 -23 -3 14 -20 99 -37 190 -39 201 -45 211 -134 209 -34 -1
-72 -4 -86 -6z m147 -74 c15 -30 61 -281 69 -369 6 -75 -6 -107 -29 -76 -10
14 -21 17 -40 12 -24 -6 -27 -11 -27 -47 0 -32 4 -42 20 -46 24 -6 24 -5 6
-47 -13 -31 -20 -35 -73 -46 -32 -7 -94 -21 -137 -31 -97 -23 -96 -23 -96 -1
0 10 -9 54 -19 98 -10 43 -26 117 -34 164 -9 47 -25 137 -38 201 -12 65 -19
124 -16 133 13 34 39 31 72 -9 l33 -38 73 6 c107 8 152 25 164 62 12 36 36 65
50 61 6 -1 15 -13 22 -27z m-107 7 c0 -22 -20 -32 -98 -51 -73 -17 -74 -17
-95 3 -11 12 -19 23 -16 25 8 7 144 34 177 36 21 1 32 -4 32 -13z m476 -282
c51 -30 176 -86 232 -105 42 -14 62 -35 62 -64 0 -41 -154 -372 -189 -406 -44
-43 -69 -51 -108 -39 -60 20 -265 127 -302 158 -30 25 -33 34 -33 78 0 43 13
77 86 227 48 96 92 178 99 181 29 13 107 -2 153 -30z m-346 -200 c0 -8 -7 -14
-15 -14 -15 0 -21 21 -9 33 10 9 24 -2 24 -19z m-34 -229 l10 -44 -50 -10
c-212 -42 -226 -41 -238 8 -5 18 -8 35 -6 37 2 2 42 10 88 19 47 9 99 20 115
24 61 18 70 14 81 -34z"/>
<path d="M598 913 c-23 -6 -32 -41 -20 -84 8 -31 12 -34 43 -31 48 4 54 14 43
69 -9 49 -22 58 -66 46z m42 -58 c0 -7 -6 -15 -14 -18 -18 -7 -31 24 -14 34
15 9 28 2 28 -16z"/>
<path d="M472 873 c-22 -4 -23 -8 -17 -41 11 -59 20 -69 55 -64 39 6 46 22 31
73 -12 40 -17 42 -69 32z m46 -51 c2 -7 -3 -12 -12 -12 -9 0 -16 7 -16 16 0
17 22 14 28 -4z"/>
<path d="M326 815 c12 -73 20 -86 51 -79 55 12 56 12 49 52 -13 69 -13 69 -62
68 l-45 -1 7 -40z m67 -20 c7 -16 -8 -29 -23 -20 -15 9 -12 35 4 35 8 0 16 -7
19 -15z"/>
<path d="M621 746 c-17 -20 4 -96 25 -96 45 0 63 32 48 88 -7 26 -54 31 -73 8z
m49 -36 c0 -5 -4 -10 -10 -10 -5 0 -10 5 -10 10 0 6 5 10 10 10 6 0 10 -4 10
-10z"/>
<path d="M518 728 c-29 -10 -34 -29 -22 -76 8 -27 44 -38 73 -22 15 7 21 20
21 45 0 65 -14 75 -72 53z m34 -60 c-11 -11 -32 -3 -32 12 0 12 34 18 39 7 2
-5 -1 -13 -7 -19z"/>
<path d="M381 699 c-21 -8 -22 -13 -16 -47 11 -61 39 -78 79 -49 15 11 17 20
9 58 -9 48 -26 57 -72 38z m35 -67 c-4 -3 -12 0 -19 7 -9 9 -9 14 3 21 11 7
16 5 18 -6 2 -9 1 -18 -2 -22z"/>
<path d="M548 573 c-36 -9 -16 -103 22 -103 49 0 62 27 40 84 -9 25 -23 29
-62 19z m32 -48 c0 -8 -4 -15 -10 -15 -5 0 -10 7 -10 15 0 8 5 15 10 15 6 0
10 -7 10 -15z"/>
<path d="M413 543 c-7 -2 -13 -19 -13 -37 0 -48 18 -68 55 -58 34 9 42 33 26
75 -10 26 -35 34 -68 20z m39 -55 c-6 -6 -15 -9 -18 -5 -4 3 -4 14 0 23 5 13
9 15 18 6 9 -9 9 -15 0 -24z"/>
<path d="M900 636 c0 -17 82 -69 151 -96 26 -11 71 -31 98 -46 51 -26 71 -25
71 2 0 9 -34 31 -87 55 -49 23 -113 54 -144 70 -62 32 -89 36 -89 15z"/>
<path d="M874 566 c-10 -27 3 -44 50 -66 25 -11 47 -20 50 -20 3 0 45 -18 92
-41 69 -33 88 -38 95 -28 14 22 -18 44 -140 99 -63 28 -121 56 -128 61 -9 8
-14 7 -19 -5z"/>
<path d="M830 477 c0 -18 10 -28 43 -43 40 -18 42 -21 45 -66 4 -56 14 -59 71
-26 l38 22 45 -27 c42 -24 47 -25 59 -11 12 14 9 20 -16 40 -17 14 -47 29 -67
36 -31 9 -41 8 -63 -6 -24 -16 -25 -16 -25 3 0 38 -13 53 -68 77 -30 13 -56
24 -58 24 -2 0 -4 -10 -4 -23z"/>
</g>
</svg>
