<?xml version="1.0" standalone="no"?>
<!DOCTYPE svg PUBLIC "-//W3C//DTD SVG 20010904//EN"
 "http://www.w3.org/TR/2001/REC-SVG-20010904/DTD/svg10.dtd">
<svg version="1.0" xmlns="http://www.w3.org/2000/svg"
 width="160.000000pt" height="120.000000pt" viewBox="0 0 160.000000 120.000000"
 preserveAspectRatio="xMidYMid meet">

<g transform="translate(0.000000,120.000000) scale(0.100000,-0.100000)"
fill="#000000" stroke="none">
<path d="M735 1044 c-60 -13 -123 -23 -138 -23 -16 -1 -36 -5 -45 -10 -10 -5
-49 -14 -87 -20 -217 -34 -265 -52 -286 -104 -23 -56 39 -537 76 -594 9 -14
32 -31 51 -39 37 -16 108 -10 339 25 66 11 141 21 166 25 l45 5 30 -50 c16
-28 51 -67 77 -86 47 -34 54 -36 147 -41 75 -3 109 -1 149 13 61 20 120 76
153 145 30 60 36 168 14 243 -19 66 -64 108 -166 157 -55 26 -76 30 -135 30
-38 -1 -75 -1 -82 -1 -16 1 -45 106 -48 176 -1 23 -12 68 -27 107 -12 33 -66
69 -99 67 -13 -1 -73 -12 -134 -25z m175 -34 c24 -13 45 -81 28 -92 -7 -4 -44
-12 -83 -18 -38 -6 -124 -24 -190 -40 -66 -17 -132 -30 -146 -30 -14 0 -62 -9
-107 -20 -44 -11 -109 -21 -144 -23 l-63 -2 -3 33 c-5 54 36 86 131 102 29 5
88 16 132 24 44 8 142 26 219 40 76 14 141 28 144 31 9 9 62 6 82 -5z m55
-177 c4 -21 11 -54 16 -73 12 -48 11 -60 -5 -60 -27 0 -66 -43 -97 -107 -26
-54 -33 -83 -37 -153 l-5 -87 -156 -22 c-86 -13 -178 -27 -204 -32 -69 -13
-160 -11 -181 4 -10 8 -24 41 -32 82 -17 77 -55 337 -51 342 2 1 36 7 77 13
41 6 99 17 130 25 30 7 89 18 130 24 41 6 99 18 128 26 52 16 230 52 264 54
12 1 19 -10 23 -36z m185 -158 c0 -11 -54 -26 -69 -19 -14 5 -13 7 4 14 23 10
65 13 65 5z m-132 -32 c15 -9 28 -18 30 -19 2 -1 -9 -20 -25 -42 l-29 -39 -37
21 c-20 11 -37 24 -37 28 0 11 51 68 61 68 5 0 22 -8 37 -17z m202 -10 c0 -10
-4 -24 -9 -32 -8 -12 -15 -11 -42 7 l-33 20 35 10 c48 14 49 14 49 -5z m148
-72 c19 -26 36 -75 24 -69 -4 2 -24 12 -45 21 -40 18 -42 22 -51 75 l-6 33 30
-17 c16 -10 37 -29 48 -43z m-106 24 c4 -20 1 -25 -14 -25 -14 0 -18 5 -14 16
3 9 6 20 6 25 0 20 18 7 22 -16z m-132 -5 c21 -11 41 -24 44 -29 6 -9 -20 -81
-29 -81 -13 0 -115 43 -120 50 -5 8 51 80 61 80 3 0 22 -9 44 -20z m-166 -105
c-14 -64 -15 -65 -54 -46 -37 18 -42 39 -20 97 l10 24 35 -22 c31 -20 34 -27
29 -53z m294 33 c11 -11 18 -98 7 -98 -4 0 -73 30 -83 37 -2 1 1 18 8 37 9 27
17 36 34 36 12 0 27 -5 34 -12z m140 -90 c2 -13 -2 -36 -7 -51 l-11 -27 -41
27 c-31 21 -39 31 -35 47 3 12 6 34 6 50 l0 28 43 -25 c28 -17 43 -33 45 -49z
m-362 48 c16 -8 41 -19 57 -25 31 -12 33 -21 12 -61 -18 -35 -20 -36 -79 -10
-48 20 -54 34 -40 88 7 26 12 27 50 8z m185 -86 c18 -10 18 -13 4 -40 -20 -40
-30 -43 -65 -25 -32 17 -36 30 -19 69 12 26 25 25 80 -4z m-310 3 c31 -19 34
-27 43 -108 l5 -50 -24 30 c-20 24 -65 121 -65 140 0 9 12 5 41 -12z m440 -79
c6 -8 1 -22 -16 -42 l-26 -31 -34 21 c-19 11 -35 22 -35 25 0 3 9 21 21 39
l21 34 30 -17 c16 -10 34 -23 39 -29z m-326 22 c19 -8 35 -18 35 -21 0 -3 -12
-24 -26 -46 -18 -29 -29 -38 -36 -31 -12 12 -24 112 -14 112 4 0 22 -7 41 -14z
m116 -49 c13 -10 14 -16 5 -29 -12 -16 -87 -60 -93 -54 -2 2 6 24 19 50 22 47
40 55 69 33z m99 -57 l25 -19 -37 -15 c-21 -9 -51 -16 -68 -16 l-31 0 33 34
c39 41 45 42 78 16z"/>
<path d="M400 870 c0 -23 5 -30 19 -30 24 0 39 39 20 51 -26 16 -39 9 -39 -21z"/>
<path d="M304 866 c-8 -21 3 -36 27 -36 15 0 20 6 17 22 -4 27 -35 37 -44 14z"/>
<path d="M234 845 c-7 -18 3 -35 22 -35 8 0 14 10 14 25 0 27 -27 35 -36 10z"/>
<path d="M650 765 c-285 -56 -375 -76 -382 -88 -10 -16 -10 -41 2 -71 8 -22
13 -24 32 -17 13 4 50 12 83 15 90 11 232 35 305 51 36 8 87 17 113 21 55 6
63 18 50 71 -8 36 -11 38 -48 40 -22 0 -92 -9 -155 -22z m170 -29 c0 -9 -16
-17 -42 -21 -24 -4 -65 -13 -93 -21 -87 -24 -384 -64 -391 -52 -7 11 -2 13
201 52 332 64 325 63 325 42z"/>
<path d="M515 584 c-49 -8 -103 -19 -119 -24 -16 -6 -41 -10 -56 -10 -38 0
-52 -21 -48 -72 l3 -43 40 2 c22 1 65 9 95 17 30 8 82 20 115 26 116 23 128
34 105 94 -11 29 -8 29 -135 10z m105 -33 c0 -4 -33 -16 -72 -25 -40 -9 -91
-21 -113 -26 -91 -21 -115 -22 -115 -5 0 8 9 15 20 15 12 0 49 6 83 14 34 8
91 19 127 24 36 5 66 10 68 11 1 0 2 -3 2 -8z"/>
</g>
</svg>
